<svg xmlns="http://www.w3.org/2000/svg" viewBox="0 0 64 64" width="64" height="64">
  <!-- Center burst -->
  <circle cx="32" cy="32" r="12" fill="#f97316" opacity="0.95"/>
  <circle cx="32" cy="32" r="8" fill="#fbbf24"/>
  <circle cx="32" cy="32" r="4" fill="#fef08a"/>
  <!-- Rays -->
  <line x1="32" y1="32" x2="32" y2="4" stroke="#f97316" stroke-width="4" stroke-linecap="round"/>
  <line x1="32" y1="32" x2="32" y2="60" stroke="#f97316" stroke-width="4" stroke-linecap="round"/>
  <line x1="32" y1="32" x2="4" y2="32" stroke="#f97316" stroke-width="4" stroke-linecap="round"/>
  <line x1="32" y1="32" x2="60" y2="32" stroke="#f97316" stroke-width="4" stroke-linecap="round"/>
  <line x1="32" y1="32" x2="10" y2="10" stroke="#ef4444" stroke-width="3" stroke-linecap="round"/>
  <line x1="32" y1="32" x2="54" y2="10" stroke="#ef4444" stroke-width="3" stroke-linecap="round"/>
  <line x1="32" y1="32" x2="10" y2="54" stroke="#ef4444" stroke-width="3" stroke-linecap="round"/>
  <line x1="32" y1="32" x2="54" y2="54" stroke="#ef4444" stroke-width="3" stroke-linecap="round"/>
  <!-- Debris particles -->
  <circle cx="12" cy="16" r="3" fill="#8147FF"/>
  <circle cx="52" cy="16" r="2" fill="#8147FF"/>
  <circle cx="8" cy="44" r="2.5" fill="#f97316"/>
  <circle cx="56" cy="44" r="3" fill="#f97316"/>
  <rect x="28" y="2" width="8" height="4" fill="#ef4444" rx="1" transform="rotate(15,32,4)"/>
</svg>
